<svg width="128" height="128" viewBox="0 0 64 64" xmlns="http://www.w3.org/2000/svg">
  <defs>
    <linearGradient id="g" x1="0" x2="1" y1="0" y2="1">
      <stop offset="0%" stop-color="#2F96EE"/>
      <stop offset="100%" stop-color="#9ad8ff"/>
    </linearGradient>
  </defs>
  <rect fill="none" width="64" height="64" rx="14" ry="14"/>
  <path d="M32 8c8 0 14 6 14 14 0 9-4 16-7 24-1 3-5 4-7 1-1-2-2-6-3-8-1 2-2 6-3 8-2 3-6 2-7-1-3-8-7-15-7-24 0-8 6-14 14-14 2 0 4 .5 6 1.4 2-.9 4-1.4 6-1.4z" fill="url(#g)" opacity="0.95"/>
  <circle cx="25" cy="24" r="2" fill="#fff" opacity="0.9"/>
  <circle cx="39" cy="24" r="2" fill="#fff" opacity="0.9"/>
</svg>
