<svg width="1200" height="760" viewBox="0 0 1200 760" xmlns="http://www.w3.org/2000/svg">
  <defs>
    <linearGradient id="bg" x1="0" y1="0" x2="1" y2="1">
      <stop offset="0%" stop-color="#0b1a2a"/>
      <stop offset="100%" stop-color="#0f2032"/>
    </linearGradient>
    <linearGradient id="bar" x1="0" y1="0" x2="1" y2="0">
      <stop offset="0%" stop-color="#2F96EE"/>
      <stop offset="100%" stop-color="#9ad8ff"/>
    </linearGradient>
  </defs>
  <rect width="1200" height="760" rx="24" fill="url(#bg)"/>
  <rect x="24" y="24" width="1152" height="56" rx="12" fill="rgba(255,255,255,0.08)"/>
  <rect x="48" y="40" width="160" height="24" rx="6" fill="url(#bar)"/>
  <rect x="24" y="100" width="260" height="612" rx="16" fill="rgba(255,255,255,0.06)"/>
  <!-- sidebar items -->
  <g fill="rgba(255,255,255,0.18)">
    <rect x="48" y="130" width="180" height="16" rx="8"/>
    <rect x="48" y="162" width="190" height="12" rx="6"/>
    <rect x="48" y="196" width="140" height="12" rx="6"/>
    <rect x="48" y="228" width="200" height="12" rx="6"/>
    <rect x="48" y="260" width="170" height="12" rx="6"/>
  </g>
  <rect x="304" y="100" width="872" height="300" rx="18" fill="rgba(255,255,255,0.06)"/>
  <rect x="304" y="420" width="872" height="292" rx="18" fill="rgba(255,255,255,0.06)"/>
  <!-- cards -->
  <g>
    <rect x="336" y="452" width="236" height="92" rx="12" fill="rgba(47,150,238,0.18)"/>
    <rect x="592" y="452" width="236" height="92" rx="12" fill="rgba(255,255,255,0.08)"/>
    <rect x="848" y="452" width="236" height="92" rx="12" fill="rgba(255,255,255,0.08)"/>
  </g>
  <g fill="#9ad8ff">
    <circle cx="340" cy="130" r="6"/>
    <circle cx="358" cy="130" r="6"/>
    <circle cx="376" cy="130" r="6"/>
  </g>
</svg>
